<mxfile host="Electron" modified="2024-01-08T14:13:15.498Z" agent="Mozilla/5.0 (Windows NT 10.0; Win64; x64) AppleWebKit/537.36 (KHTML, like Gecko) draw.io/22.1.16 Chrome/120.0.6099.109 Electron/28.1.0 Safari/537.36" etag="zvs8VSYQW20suFogJKaZ" version="22.1.16" type="device">
  <diagram name="Страница — 1" id="Zdfsya19gfpe89Lra-Lf">
    <mxGraphModel dx="712" dy="1997" grid="1" gridSize="10" guides="1" tooltips="1" connect="1" arrows="1" fold="1" page="1" pageScale="1" pageWidth="827" pageHeight="1169" math="0" shadow="0">
      <root>
        <mxCell id="0" />
        <mxCell id="1" parent="0" />
        <mxCell id="RLOG1VHnr7YDkl1zMWKC-1" value="Start" style="ellipse;whiteSpace=wrap;html=1;" parent="1" vertex="1">
          <mxGeometry x="200" y="-960" width="80" height="40" as="geometry" />
        </mxCell>
        <mxCell id="RLOG1VHnr7YDkl1zMWKC-35" value="" style="edgeStyle=orthogonalEdgeStyle;rounded=0;orthogonalLoop=1;jettySize=auto;html=1;" parent="1" source="RLOG1VHnr7YDkl1zMWKC-3" target="RLOG1VHnr7YDkl1zMWKC-7" edge="1">
          <mxGeometry relative="1" as="geometry" />
        </mxCell>
        <mxCell id="RLOG1VHnr7YDkl1zMWKC-3" value="array_Text =&amp;nbsp; [Hello, 2, world, :-)]&lt;br&gt;array_NewText = new_array[Text_size]&lt;br&gt;NewText_index = j = 0" style="rounded=0;whiteSpace=wrap;html=1;" parent="1" vertex="1">
          <mxGeometry x="130" y="-890" width="220" height="70" as="geometry" />
        </mxCell>
        <mxCell id="RLOG1VHnr7YDkl1zMWKC-4" value="" style="endArrow=classic;html=1;rounded=0;exitX=0.5;exitY=1;exitDx=0;exitDy=0;entryX=0.5;entryY=0;entryDx=0;entryDy=0;" parent="1" source="RLOG1VHnr7YDkl1zMWKC-3" target="RLOG1VHnr7YDkl1zMWKC-5" edge="1">
          <mxGeometry width="50" height="50" relative="1" as="geometry">
            <mxPoint x="220" y="-520" as="sourcePoint" />
            <mxPoint x="440" y="-760" as="targetPoint" />
            <Array as="points">
              <mxPoint x="240" y="-800" />
              <mxPoint x="600" y="-800" />
            </Array>
          </mxGeometry>
        </mxCell>
        <mxCell id="RLOG1VHnr7YDkl1zMWKC-5" value="[ Text[&quot;0&quot;, &quot;1&quot;, &quot;2&quot;, &quot;3&quot;] ] - &amp;gt; [" style="shape=document;whiteSpace=wrap;html=1;boundedLbl=1;" parent="1" vertex="1">
          <mxGeometry x="560" y="-780" width="80" height="60" as="geometry" />
        </mxCell>
        <mxCell id="RLOG1VHnr7YDkl1zMWKC-6" value="" style="endArrow=classic;html=1;rounded=0;entryX=0.5;entryY=0;entryDx=0;entryDy=0;" parent="1" target="RLOG1VHnr7YDkl1zMWKC-7" edge="1">
          <mxGeometry width="50" height="50" relative="1" as="geometry">
            <mxPoint x="240" y="-820" as="sourcePoint" />
            <mxPoint x="240" y="-760" as="targetPoint" />
          </mxGeometry>
        </mxCell>
        <mxCell id="RLOG1VHnr7YDkl1zMWKC-7" value="i = 0, i &amp;lt; Text_size, i++" style="shape=hexagon;perimeter=hexagonPerimeter2;whiteSpace=wrap;html=1;fixedSize=1;" parent="1" vertex="1">
          <mxGeometry x="150" y="-760" width="180" height="50" as="geometry" />
        </mxCell>
        <mxCell id="RLOG1VHnr7YDkl1zMWKC-10" value="Text[i]_Lenth &amp;lt; 4" style="rhombus;whiteSpace=wrap;html=1;" parent="1" vertex="1">
          <mxGeometry x="170" y="-680" width="140" height="60" as="geometry" />
        </mxCell>
        <mxCell id="RLOG1VHnr7YDkl1zMWKC-11" value="" style="endArrow=classic;html=1;rounded=0;exitX=0.5;exitY=1;exitDx=0;exitDy=0;entryX=0.5;entryY=0;entryDx=0;entryDy=0;" parent="1" source="RLOG1VHnr7YDkl1zMWKC-7" target="RLOG1VHnr7YDkl1zMWKC-10" edge="1">
          <mxGeometry width="50" height="50" relative="1" as="geometry">
            <mxPoint x="310" y="-520" as="sourcePoint" />
            <mxPoint x="360" y="-570" as="targetPoint" />
          </mxGeometry>
        </mxCell>
        <mxCell id="RLOG1VHnr7YDkl1zMWKC-12" value="NewText[j]&amp;nbsp; = Text[i]&lt;br&gt;j++" style="rounded=0;whiteSpace=wrap;html=1;" parent="1" vertex="1">
          <mxGeometry x="180" y="-584" width="120" height="44.5" as="geometry" />
        </mxCell>
        <mxCell id="RLOG1VHnr7YDkl1zMWKC-13" value="" style="endArrow=classic;html=1;rounded=0;exitX=0.5;exitY=1;exitDx=0;exitDy=0;entryX=0.5;entryY=0;entryDx=0;entryDy=0;" parent="1" source="RLOG1VHnr7YDkl1zMWKC-10" target="RLOG1VHnr7YDkl1zMWKC-12" edge="1">
          <mxGeometry width="50" height="50" relative="1" as="geometry">
            <mxPoint x="310" y="-520" as="sourcePoint" />
            <mxPoint x="360" y="-570" as="targetPoint" />
          </mxGeometry>
        </mxCell>
        <mxCell id="RLOG1VHnr7YDkl1zMWKC-15" value="" style="endArrow=classic;html=1;rounded=0;exitX=1;exitY=0.5;exitDx=0;exitDy=0;entryX=0.5;entryY=0;entryDx=0;entryDy=0;" parent="1" source="RLOG1VHnr7YDkl1zMWKC-7" edge="1">
          <mxGeometry width="50" height="50" relative="1" as="geometry">
            <mxPoint x="310" y="-520" as="sourcePoint" />
            <mxPoint x="440" y="-720" as="targetPoint" />
            <Array as="points">
              <mxPoint x="440" y="-735" />
            </Array>
          </mxGeometry>
        </mxCell>
        <mxCell id="RLOG1VHnr7YDkl1zMWKC-16" value="" style="endArrow=classic;html=1;rounded=0;exitX=0.5;exitY=1;exitDx=0;exitDy=0;entryX=0;entryY=0.5;entryDx=0;entryDy=0;" parent="1" source="RLOG1VHnr7YDkl1zMWKC-12" target="RLOG1VHnr7YDkl1zMWKC-7" edge="1">
          <mxGeometry width="50" height="50" relative="1" as="geometry">
            <mxPoint x="310" y="-520" as="sourcePoint" />
            <mxPoint x="80" y="-740" as="targetPoint" />
            <Array as="points">
              <mxPoint x="240" y="-520" />
              <mxPoint x="120" y="-520" />
              <mxPoint x="120" y="-735" />
            </Array>
          </mxGeometry>
        </mxCell>
        <mxCell id="RLOG1VHnr7YDkl1zMWKC-17" value="" style="endArrow=classic;html=1;rounded=0;exitX=1;exitY=0.5;exitDx=0;exitDy=0;" parent="1" source="RLOG1VHnr7YDkl1zMWKC-10" edge="1">
          <mxGeometry width="50" height="50" relative="1" as="geometry">
            <mxPoint x="330" y="-680" as="sourcePoint" />
            <mxPoint x="240" y="-520" as="targetPoint" />
            <Array as="points">
              <mxPoint x="320" y="-650" />
              <mxPoint x="320" y="-520" />
              <mxPoint x="290" y="-520" />
            </Array>
          </mxGeometry>
        </mxCell>
        <mxCell id="RLOG1VHnr7YDkl1zMWKC-21" value="No" style="edgeLabel;resizable=0;html=1;align=center;verticalAlign=middle;" parent="1" connectable="0" vertex="1">
          <mxGeometry x="370" y="-735" as="geometry" />
        </mxCell>
        <mxCell id="RLOG1VHnr7YDkl1zMWKC-23" value="NewText_size = j" style="rounded=0;whiteSpace=wrap;html=1;" parent="1" vertex="1">
          <mxGeometry x="380" y="-720" width="120" height="40" as="geometry" />
        </mxCell>
        <mxCell id="RLOG1VHnr7YDkl1zMWKC-25" value="n = 0, n &amp;lt; NewText_size-1, n++" style="shape=hexagon;perimeter=hexagonPerimeter2;whiteSpace=wrap;html=1;fixedSize=1;" parent="1" vertex="1">
          <mxGeometry x="350" y="-664.5" width="180" height="50" as="geometry" />
        </mxCell>
        <mxCell id="RLOG1VHnr7YDkl1zMWKC-26" value="n = NewText_size-1,&amp;nbsp;n &amp;lt; NewText_size, n++" style="shape=hexagon;perimeter=hexagonPerimeter2;whiteSpace=wrap;html=1;fixedSize=1;" parent="1" vertex="1">
          <mxGeometry x="350" y="-584" width="180" height="50" as="geometry" />
        </mxCell>
        <mxCell id="RLOG1VHnr7YDkl1zMWKC-27" value="" style="endArrow=classic;html=1;rounded=0;exitX=0.5;exitY=1;exitDx=0;exitDy=0;entryX=0.5;entryY=0;entryDx=0;entryDy=0;" parent="1" source="RLOG1VHnr7YDkl1zMWKC-1" target="RLOG1VHnr7YDkl1zMWKC-3" edge="1">
          <mxGeometry width="50" height="50" relative="1" as="geometry">
            <mxPoint x="280" y="-620" as="sourcePoint" />
            <mxPoint x="330" y="-670" as="targetPoint" />
          </mxGeometry>
        </mxCell>
        <mxCell id="RLOG1VHnr7YDkl1zMWKC-28" value="NewText[&quot;0&quot;, ... &quot;n-1&quot;, ]" style="shape=document;whiteSpace=wrap;html=1;boundedLbl=1;" parent="1" vertex="1">
          <mxGeometry x="560" y="-625" width="80" height="50" as="geometry" />
        </mxCell>
        <mxCell id="RLOG1VHnr7YDkl1zMWKC-29" value="NewText[&quot;n&quot;]" style="shape=document;whiteSpace=wrap;html=1;boundedLbl=1;" parent="1" vertex="1">
          <mxGeometry x="560" y="-539.5" width="80" height="49.5" as="geometry" />
        </mxCell>
        <mxCell id="RLOG1VHnr7YDkl1zMWKC-30" value="" style="endArrow=classic;html=1;rounded=0;exitX=0.5;exitY=1;exitDx=0;exitDy=0;entryX=0.5;entryY=0;entryDx=0;entryDy=0;" parent="1" source="RLOG1VHnr7YDkl1zMWKC-23" target="RLOG1VHnr7YDkl1zMWKC-25" edge="1">
          <mxGeometry width="50" height="50" relative="1" as="geometry">
            <mxPoint x="410" y="-620" as="sourcePoint" />
            <mxPoint x="460" y="-670" as="targetPoint" />
          </mxGeometry>
        </mxCell>
        <mxCell id="RLOG1VHnr7YDkl1zMWKC-31" value="" style="endArrow=classic;html=1;rounded=0;exitX=1;exitY=0.5;exitDx=0;exitDy=0;entryX=0.5;entryY=0;entryDx=0;entryDy=0;" parent="1" source="RLOG1VHnr7YDkl1zMWKC-25" target="RLOG1VHnr7YDkl1zMWKC-28" edge="1">
          <mxGeometry width="50" height="50" relative="1" as="geometry">
            <mxPoint x="410" y="-620" as="sourcePoint" />
            <mxPoint x="460" y="-670" as="targetPoint" />
            <Array as="points">
              <mxPoint x="600" y="-639" />
            </Array>
          </mxGeometry>
        </mxCell>
        <mxCell id="RLOG1VHnr7YDkl1zMWKC-32" value="" style="endArrow=classic;html=1;rounded=0;exitX=0.5;exitY=1;exitDx=0;exitDy=0;entryX=0.5;entryY=0;entryDx=0;entryDy=0;" parent="1" source="RLOG1VHnr7YDkl1zMWKC-25" target="RLOG1VHnr7YDkl1zMWKC-26" edge="1">
          <mxGeometry width="50" height="50" relative="1" as="geometry">
            <mxPoint x="410" y="-620" as="sourcePoint" />
            <mxPoint x="460" y="-670" as="targetPoint" />
          </mxGeometry>
        </mxCell>
        <mxCell id="RLOG1VHnr7YDkl1zMWKC-34" value="" style="endArrow=classic;html=1;rounded=0;exitX=1;exitY=0.5;exitDx=0;exitDy=0;entryX=0.5;entryY=0;entryDx=0;entryDy=0;" parent="1" source="RLOG1VHnr7YDkl1zMWKC-26" target="RLOG1VHnr7YDkl1zMWKC-29" edge="1">
          <mxGeometry width="50" height="50" relative="1" as="geometry">
            <mxPoint x="520" y="-620" as="sourcePoint" />
            <mxPoint x="570" y="-670" as="targetPoint" />
            <Array as="points">
              <mxPoint x="600" y="-559" />
            </Array>
          </mxGeometry>
        </mxCell>
        <mxCell id="RLOG1VHnr7YDkl1zMWKC-36" value="End" style="ellipse;whiteSpace=wrap;html=1;" parent="1" vertex="1">
          <mxGeometry x="560" y="-420" width="80" height="40" as="geometry" />
        </mxCell>
        <mxCell id="RLOG1VHnr7YDkl1zMWKC-38" value="Yes" style="edgeLabel;html=1;align=center;verticalAlign=middle;resizable=0;points=[];" parent="1" vertex="1" connectable="0">
          <mxGeometry x="240" y="-700" as="geometry" />
        </mxCell>
        <mxCell id="RLOG1VHnr7YDkl1zMWKC-39" value="Yes" style="edgeLabel;html=1;align=center;verticalAlign=middle;resizable=0;points=[];" parent="1" vertex="1" connectable="0">
          <mxGeometry x="118" y="-390" as="geometry">
            <mxPoint x="118" y="-212" as="offset" />
          </mxGeometry>
        </mxCell>
        <mxCell id="RLOG1VHnr7YDkl1zMWKC-40" value="Yes" style="edgeLabel;html=1;align=center;verticalAlign=middle;resizable=0;points=[];" parent="1" vertex="1" connectable="0">
          <mxGeometry x="128" y="-380" as="geometry">
            <mxPoint x="426" y="-261" as="offset" />
          </mxGeometry>
        </mxCell>
        <mxCell id="RLOG1VHnr7YDkl1zMWKC-41" value="Yes" style="edgeLabel;html=1;align=center;verticalAlign=middle;resizable=0;points=[];" parent="1" vertex="1" connectable="0">
          <mxGeometry x="520" y="-559" as="geometry">
            <mxPoint x="44" y="-1" as="offset" />
          </mxGeometry>
        </mxCell>
        <mxCell id="RLOG1VHnr7YDkl1zMWKC-42" value="No" style="edgeLabel;resizable=0;html=1;align=center;verticalAlign=middle;" parent="1" connectable="0" vertex="1">
          <mxGeometry x="320" y="-600" as="geometry" />
        </mxCell>
        <mxCell id="RLOG1VHnr7YDkl1zMWKC-43" value="No" style="edgeLabel;resizable=0;html=1;align=center;verticalAlign=middle;" parent="1" connectable="0" vertex="1">
          <mxGeometry x="440" y="-600" as="geometry" />
        </mxCell>
        <mxCell id="RLOG1VHnr7YDkl1zMWKC-44" value="&quot;]&quot;" style="shape=document;whiteSpace=wrap;html=1;boundedLbl=1;" parent="1" vertex="1">
          <mxGeometry x="560" y="-470" width="80" height="40" as="geometry" />
        </mxCell>
        <mxCell id="RLOG1VHnr7YDkl1zMWKC-45" value="" style="endArrow=classic;html=1;rounded=0;exitX=0.5;exitY=1;exitDx=0;exitDy=0;entryX=0.5;entryY=0;entryDx=0;entryDy=0;" parent="1" source="RLOG1VHnr7YDkl1zMWKC-26" target="RLOG1VHnr7YDkl1zMWKC-44" edge="1">
          <mxGeometry width="50" height="50" relative="1" as="geometry">
            <mxPoint x="370" y="-620" as="sourcePoint" />
            <mxPoint x="700" y="-470" as="targetPoint" />
            <Array as="points">
              <mxPoint x="440" y="-480" />
              <mxPoint x="600" y="-480" />
            </Array>
          </mxGeometry>
        </mxCell>
        <mxCell id="RLOG1VHnr7YDkl1zMWKC-46" value="No" style="edgeLabel;resizable=0;html=1;align=center;verticalAlign=middle;" parent="1" connectable="0" vertex="1">
          <mxGeometry x="330" y="-595" as="geometry">
            <mxPoint x="107" y="89" as="offset" />
          </mxGeometry>
        </mxCell>
        <mxCell id="RLOG1VHnr7YDkl1zMWKC-47" value="" style="endArrow=classic;html=1;rounded=0;entryX=0.5;entryY=0;entryDx=0;entryDy=0;exitX=0.488;exitY=0.9;exitDx=0;exitDy=0;exitPerimeter=0;" parent="1" source="RLOG1VHnr7YDkl1zMWKC-44" target="RLOG1VHnr7YDkl1zMWKC-36" edge="1">
          <mxGeometry width="50" height="50" relative="1" as="geometry">
            <mxPoint x="600" y="-440" as="sourcePoint" />
            <mxPoint x="420" y="-670" as="targetPoint" />
          </mxGeometry>
        </mxCell>
        <mxCell id="RLOG1VHnr7YDkl1zMWKC-50" value="" style="endArrow=classic;html=1;rounded=0;entryX=0.5;entryY=0;entryDx=0;entryDy=0;" parent="1" target="RLOG1VHnr7YDkl1zMWKC-25" edge="1">
          <mxGeometry width="50" height="50" relative="1" as="geometry">
            <mxPoint x="560" y="-640" as="sourcePoint" />
            <mxPoint x="530" y="-690" as="targetPoint" />
            <Array as="points">
              <mxPoint x="560" y="-670" />
              <mxPoint x="450" y="-670" />
            </Array>
          </mxGeometry>
        </mxCell>
        <mxCell id="RLOG1VHnr7YDkl1zMWKC-54" value="" style="endArrow=classic;html=1;rounded=0;exitX=1;exitY=0.5;exitDx=0;exitDy=0;entryX=0.5;entryY=0;entryDx=0;entryDy=0;" parent="1" source="RLOG1VHnr7YDkl1zMWKC-26" target="RLOG1VHnr7YDkl1zMWKC-26" edge="1">
          <mxGeometry width="50" height="50" relative="1" as="geometry">
            <mxPoint x="370" y="-620" as="sourcePoint" />
            <mxPoint x="440" y="-590" as="targetPoint" />
            <Array as="points">
              <mxPoint x="540" y="-560" />
              <mxPoint x="540" y="-600" />
              <mxPoint x="460" y="-600" />
            </Array>
          </mxGeometry>
        </mxCell>
        <mxCell id="arwh2Z0au5MN6IozzObF-1" value="" style="endArrow=classic;html=1;rounded=0;exitX=0.538;exitY=0.817;exitDx=0;exitDy=0;exitPerimeter=0;" edge="1" parent="1" source="RLOG1VHnr7YDkl1zMWKC-5">
          <mxGeometry width="50" height="50" relative="1" as="geometry">
            <mxPoint x="640" y="-702.75" as="sourcePoint" />
            <mxPoint x="603" y="-420" as="targetPoint" />
            <Array as="points">
              <mxPoint x="603" y="-700" />
              <mxPoint x="680" y="-700" />
              <mxPoint x="680" y="-430" />
              <mxPoint x="600" y="-430" />
            </Array>
          </mxGeometry>
        </mxCell>
        <mxCell id="arwh2Z0au5MN6IozzObF-2" value="" style="endArrow=classic;html=1;rounded=0;exitX=0.5;exitY=0.9;exitDx=0;exitDy=0;exitPerimeter=0;" edge="1" parent="1" source="RLOG1VHnr7YDkl1zMWKC-28">
          <mxGeometry width="50" height="50" relative="1" as="geometry">
            <mxPoint x="410" y="-700" as="sourcePoint" />
            <mxPoint x="680" y="-570" as="targetPoint" />
            <Array as="points">
              <mxPoint x="600" y="-570" />
            </Array>
          </mxGeometry>
        </mxCell>
        <mxCell id="arwh2Z0au5MN6IozzObF-3" value="" style="endArrow=classic;html=1;rounded=0;exitX=0.513;exitY=0.838;exitDx=0;exitDy=0;exitPerimeter=0;" edge="1" parent="1" source="RLOG1VHnr7YDkl1zMWKC-29">
          <mxGeometry width="50" height="50" relative="1" as="geometry">
            <mxPoint x="730" y="-570" as="sourcePoint" />
            <mxPoint x="680" y="-490" as="targetPoint" />
            <Array as="points">
              <mxPoint x="601" y="-490" />
            </Array>
          </mxGeometry>
        </mxCell>
      </root>
    </mxGraphModel>
  </diagram>
</mxfile>
